<?xml version="1.0" encoding="utf-8"?><svg xmlns="http://www.w3.org/2000/svg" font-family="Andale Mono,AndaleMono,Consolas,monospace" width="775px" height="550px" font-size="16px">
<style>
.keyColor {fill: #953800;}
.valueColor {fill: #0a3069;}
.addColor {fill: #1a7f37;}
.delColor {fill: #cf222e;}
.commentColor {fill: #8b949e;}
text, tspan {white-space: pre;}
</style>

<rect width="970px" height="530px" fill="#f6f8fa" rx="15"/>

<text x="15" y="30" fill="#24292f" class="ascii">
  

<tspan x="15" y="30">                 ░░░░░░░░░░░</tspan>
<tspan x="15" y="50">               ░░████████████░░</tspan>
<tspan x="15" y="70">             ░▒██▓█████▓▓██████░░</tspan>
<tspan x="15" y="90">            ░███▒█▒░░░░░░░░█████░</tspan>
<tspan x="15" y="110">           ░███████░░░░░░░░░█████░</tspan>
<tspan x="15" y="130">          ▓███▓██▓█▒░▒▓████░▒█░██░</tspan>
<tspan x="15" y="150">          ███▒▓░████▒██▓▒▓██████▓░</tspan>
<tspan x="15" y="170">          ▒█████████▓░███▓▒░░░▒░░</tspan>
<tspan x="15" y="190">           ░████▒░▒█░░░░░░░░░▒██░</tspan>
<tspan x="15" y="210">            ░░██▒▒▓██▒█▓██░▒░▒░▒░</tspan>
<tspan x="15" y="230">             ░▓█▒░░▓▓▓▒░░█▒▒░█░░</tspan>
<tspan x="15" y="250">              ░▒██▓████▓▒▓▒░░█░</tspan>
<tspan x="15" y="270">                ░█▓░░▒▒░░░░▒▒█░</tspan>
<tspan x="15" y="290">                 ░██▓░░▒▒▓▓▓░▓░</tspan>
<tspan x="15" y="310">                 ░▒███████▓▓██░</tspan>
<tspan x="15" y="330">                  ████▓▒▒█▒░░░░░</tspan>
<tspan x="15" y="350">                 ░░░░░░░░░░░░░░█░</tspan>
<tspan x="15" y="370">                 ░░░████░░░░░█████░░</tspan>
<tspan x="15" y="390">               ░██░▓█████▒░░█████████░░░</tspan>
<tspan x="15" y="410">           ░░█████░░██░░░░██░▓██████████ </tspan>
<tspan x="15" y="430">       ░░▒██░░░░░█░████░█▒░░░░██████████</tspan>
<tspan x="15" y="450">     ░████░▒▒░░░░█░████░▒▒▒▒░░░█████████</tspan>
<tspan x="15" y="470">     ▓██▒░▒▒▒░░░░█▓████░░▒▒▒░░░▓████████</tspan>
<tspan x="15" y="490">    ░██░░░░░░░░░██▓░███░░░░▓▒▒░░████████</tspan>
<tspan x="15" y="510">    ▒█░░░░░░░███████████░░░▒▒░░░▒███████</tspan>
<!--
<tspan x="15" y="30">                      ▒░░▒</tspan>
<tspan x="15" y="50">                ░░░░░░░░░░░░░</tspan>
<tspan x="15" y="70">              ▒░░▒░░░░░▓▓░░░░░░</tspan>
<tspan x="15" y="90">             ░░░█░█████████░░░░░</tspan>
<tspan x="15" y="110">            ░░░░▒░░█████████░▒▒░░</tspan>
<tspan x="15" y="130">          ░░░▒▓▒░▓░███▓▒░░▒██░█░░</tspan>
<tspan x="15" y="150">          ░░▒█▓█▓▒░▒█▒░▓██▒░░░░░</tspan>
<tspan x="15" y="170">          ░░░▒▒░░░▒░▒█░░░▓████▓█</tspan>
<tspan x="15" y="190">            ░░░░███▒██████████░░</tspan>
<tspan x="15" y="210">             ▒░▒██▓░░█▒▒░▓██████</tspan>
<tspan x="15" y="230">              ░░███▓▓▓███░▓██░▒</tspan>
<tspan x="15" y="250">               ▒░▓▒░░▒▒▓█████▓</tspan>
<tspan x="15" y="270">                 ░▓██████████▓</tspan>
<tspan x="15" y="290">                  ░▒▓█████▓▓█▓</tspan>
<tspan x="15" y="310">                  ▓░░░░░░▒▓▓▓▒</tspan>
<tspan x="15" y="330">                  ▒░░░▓█▓▓█████</tspan>
<tspan x="15" y="350">                 ██████████████▒</tspan>
<tspan x="15" y="370">                 ███░░░░█████░░░░░▓</tspan>
<tspan x="15" y="390">                ░░█░░░░░░▓██░░░▒▒░░░░░</tspan>
<tspan x="15" y="410">             ░░░░░██░░████▒░██░░▒▒▒░░░░░</tspan>
<tspan x="15" y="430">         ░░▓█████░█░░░░███████▒░░▒▒▒▒▒░░</tspan>
<tspan x="15" y="450">      ░░░░███████░█░▒░░████████▓░▒▒▒▒▒▒▒</tspan>
<tspan x="15" y="470">     ░░░█████████░░░░░█████████▒░▒▒▒▒▒▒▒</tspan>
<tspan x="15" y="490">     ░░█████████░░▓█▓░░█████████░░▒▒▒▒▒▒</tspan>
<tspan x="15" y="510">    ░░███████░░░░▒░░░░░░█████████░▒▒▒▒▒░</tspan>
-->
</text>

<text x="370" y="30" fill="#24292f">
<tspan x="370" y="30">Morgan-Packard</tspan>
<tspan x="370" y="50">——————</tspan>
<tspan x="370" y="70" class="keyColor">OS</tspan>: <tspan class="valueColor">Windows 11, Linux (Ubuntu 22)</tspan>
<tspan x="370" y="90" class="keyColor">Languages</tspan>.<tspan class="keyColor">Programming</tspan>: <tspan class="valueColor">C++, Java, Python</tspan>
<tspan x="370" y="110" class="keyColor">Languages</tspan>.<tspan class="keyColor">Computer</tspan>: <tspan class="valueColor">HTML, CSS</tspan>
<tspan x="370" y="130" class="keyColor">Languages</tspan>.<tspan class="keyColor">Real</tspan>: <tspan class="valueColor">English, 日本語</tspan>
<tspan x="370" y="150" class="keyColor">Hobbies</tspan>.<tspan class="keyColor">Software</tspan>: <tspan class="valueColor">Physics Sims, video games</tspan>
<tspan x="370" y="170" class="keyColor">Hobbies</tspan>.<tspan class="keyColor">Hardware</tspan>: <tspan class="valueColor">ASIC Design</tspan>
<tspan x="370" y="190" class="keyColor">Contact</tspan>:
<tspan x="370" y="210">——————</tspan>
<tspan x="370" y="230" class="keyColor">Email</tspan>: <tspan class="valueColor">Awesomepackard@gmail.com</tspan>
<tspan x="370" y="250" class="keyColor">LinkedIn</tspan>: <a href="www.linkedin.com/in/morgan-packard"> <tspan class="valueColor">Morgan-Packard</tspan> </a> <!-- figure out how to hot link this as morgan packard -->
<tspan x="370" y="270" class="keyColor">Discord</tspan>: <tspan class="valueColor">Morgz25</tspan>
</text>

</svg>
